<?xml version="1.0" encoding="iso-8859-1"?>
<!-- Generator: Adobe Illustrator 16.0.4, SVG Export Plug-In . SVG Version: 6.00 Build 0)  -->
<!DOCTYPE svg PUBLIC "-//W3C//DTD SVG 1.1//EN" "http://www.w3.org/Graphics/SVG/1.1/DTD/svg11.dtd">
<svg version="1.1" id="Layer_1" xmlns="http://www.w3.org/2000/svg" xmlns:xlink="http://www.w3.org/1999/xlink" x="0px" y="0px"
	 width="1920px" height="960px" viewBox="0 0 1920 960" enable-background="new 0 0 1920 960" xml:space="preserve">
<rect fill="#333333" width="1920" height="960"/>
<rect x="1020.036" y="330.116" transform="matrix(0.8635 -0.5044 0.5044 0.8635 -48.1038 603.2704)" fill="#7ACF52" width="140.572" height="120.756"/>
<rect x="926.298" y="103.783" transform="matrix(0.8635 -0.5044 0.5044 0.8635 24.6785 541.8649)" fill="#BAB732" width="173.944" height="243.126"/>
<polygon fill="#00868A" points="1243.326,748.003 1183.736,782.81 1116.88,668.362 1176.472,633.557 "/>
<rect x="662.195" y="231.918" transform="matrix(0.8635 -0.5044 0.5044 0.8635 -82.0174 400.4315)" fill="#662D91" width="73.029" height="239.617"/>
<rect x="740.488" y="563.434" transform="matrix(0.8635 -0.5044 0.5044 0.8635 -202.9811 473.7884)" fill="#B4000E" width="66.405" height="96.813"/>
<rect x="788.045" y="497.204" transform="matrix(0.8635 -0.5044 0.5044 0.8635 -153.6578 522.554)" fill="#FF9034" width="200.785" height="95.823"/>
<rect x="708.549" y="135.441" transform="matrix(0.8635 -0.5044 0.5044 0.8635 -35.3385 428.4923)" fill="#ED1C24" width="130.612" height="288.168"/>
<rect x="913.211" y="238.491" transform="matrix(0.8635 -0.5044 0.5044 0.8635 -60.614 533.0799)" fill="#FFC12A" width="82.329" height="280.024"/>
<rect x="850.059" y="384.965" transform="matrix(0.8635 -0.5044 0.5044 0.8635 -96.6904 508.5478)" fill="#FF3F44" width="81.915" height="95.821"/>
<rect x="1001.721" y="487.608" transform="matrix(0.8635 -0.5044 0.5044 0.8635 -122.1654 603.5007)" fill="#6FC900" width="103.987" height="79.617"/>
<rect x="684.504" y="451.643" transform="matrix(0.8635 -0.5044 0.5044 0.8635 -146.0737 459.7682)" fill="#8A0056" width="183.524" height="96.149"/>
<rect x="943.289" y="551.236" transform="matrix(0.8635 -0.5044 0.5044 0.8635 -159.103 574.155)" fill="#E1E900" width="75.514" height="59.483"/>
<rect x="979.874" y="572.589" transform="matrix(0.8635 -0.5044 0.5044 0.8635 -171.6106 625.7297)" fill="#00B434" width="180.404" height="114.569"/>
<rect x="1135.37" y="429.91" transform="matrix(0.8635 -0.5044 0.5044 0.8635 -118.7931 668.4619)" fill="#29ABE2" width="79.898" height="247.486"/>
<rect x="781.274" y="615.159" transform="matrix(0.8635 -0.5044 0.5044 0.8635 -223.6008 537.5201)" fill="#FF752A" width="199.644" height="133.264"/>
<polygon fill="#BCE900" points="1165.493,750.986 1041.592,823.367 993.263,740.63 1117.164,668.255 "/>
<rect x="815.369" y="155.798" transform="matrix(0.8635 -0.5044 0.5044 0.8635 10.546 460.8563)" fill="#F6A300" width="82.324" height="110.301"/>
<rect x="1122.082" y="233.433" transform="matrix(0.8635 -0.5044 0.5044 0.8635 33.9312 667.6006)" fill="#4A6BFF" width="256.214" height="75.375"/>
<polygon fill="#6E35FF" points="1349.412,529.904 1243.342,591.864 1147.423,426.758 1252.957,364.779 "/>
<rect x="1247.788" y="530.783" transform="matrix(0.8635 -0.5044 0.5044 0.8635 -102.0223 762.6089)" fill="#8944BD" width="219.854" height="77.963"/>
<polygon fill="#5572BD" points="1311.215,708.113 1242.749,748.108 1203.239,680.654 1271.789,640.608 "/>
<polygon fill="#7644BD" points="1396.517,281.061 1181.344,406.832 1158.674,368.261 1373.931,242.4 "/>
<rect x="1335.885" y="619.634" transform="matrix(0.8635 -0.5044 0.5044 0.8635 -184.4489 796.6254)" fill="#1F3CFF" width="86.98" height="238.819"/>
<rect x="1241.04" y="727.127" transform="matrix(0.8635 -0.5044 0.5044 0.8635 -226.1193 764.0403)" fill="#00B4A0" width="114.35" height="145.126"/>
<rect x="1277.418" y="312.992" transform="matrix(0.8635 -0.5044 0.5044 0.8635 -8.1104 738.6648)" fill="#A25FFF" width="166.055" height="142.644"/>
<rect x="1325.405" y="442.106" transform="matrix(0.8635 -0.5044 0.5044 0.8635 -43.1774 774.6744)" fill="#1556FF" width="168.063" height="49.981"/>
<rect x="1387.049" y="578.156" transform="matrix(0.8635 -0.5044 0.5044 0.8635 -132.2823 814.8133)" fill="#6C00F4" width="104.04" height="147.233"/>
<rect x="921.948" y="718.284" transform="matrix(0.8634 -0.5044 0.5044 0.8634 -261.2278 593.3076)" fill="#FF3F44" width="86.608" height="121.737"/>
<rect x="696.736" y="692.271" transform="matrix(0.8635 -0.5044 0.5044 0.8635 -301.2048 494.1572)" fill="#FF9034" width="130.953" height="222.396"/>
<rect x="839.429" y="24.369" transform="matrix(0.8635 -0.5044 0.5044 0.8635 84.3644 471.5361)" fill="#B4000E" width="147.601" height="111.113"/>
<rect x="980.745" y="694.602" transform="matrix(0.8635 -0.5044 0.5044 0.8635 -224.446 600.455)" fill="#FFFF00" width="32.334" height="40.425"/>
<polygon fill="#B1A300" points="1213.751,892.327 1142.669,933.855 1068.282,806.509 1139.364,764.984 "/>
<polygon fill="#E1E900" points="1251.363,226.694 1149.821,286.013 1077.054,161.442 1178.597,102.13 "/>
<polygon fill="#5572BD" points="1505.87,311.435 1437.405,351.432 1373.666,242.497 1442.216,202.452 "/>
<rect x="1332.073" y="64.396" transform="matrix(0.8635 -0.5044 0.5044 0.8635 124.7408 732.2933)" fill="#A25FFF" width="166.054" height="142.645"/>
<rect x="253.67" y="356.295" transform="matrix(0.8635 -0.5044 0.5044 0.8635 -165.9399 220.2912)" fill="#7ACF52" width="140.572" height="120.755"/>
<rect x="159.93" y="129.962" transform="matrix(0.8635 -0.5044 0.5044 0.8635 -93.1602 158.8799)" fill="#BAB732" width="173.944" height="243.126"/>
<polygon fill="#00868A" points="476.958,774.182 417.369,808.988 350.513,694.541 410.104,659.735 "/>
<rect x="-104.172" y="258.097" transform="matrix(0.8635 -0.5044 0.5044 0.8635 -199.8452 17.4663)" fill="#DF005B" width="73.029" height="239.617"/>
<rect x="-86.343" y="605.979" transform="matrix(0.8635 -0.5044 0.5044 0.8635 -332.893 78.9031)" fill="#B4000E" width="131.299" height="96.813"/>
<rect x="21.678" y="523.384" transform="matrix(0.8635 -0.5044 0.5044 0.8635 -271.493 139.5697)" fill="#FF9034" width="200.785" height="95.822"/>
<rect x="-57.818" y="161.62" transform="matrix(0.8635 -0.5044 0.5044 0.8635 -153.1731 45.5141)" fill="#ED1C24" width="130.612" height="288.168"/>
<rect x="146.843" y="264.67" transform="matrix(0.8635 -0.5044 0.5044 0.8635 -178.4567 150.0873)" fill="#FFC12A" width="82.328" height="280.024"/>
<rect x="83.692" y="411.144" transform="matrix(0.8635 -0.5044 0.5044 0.8635 -214.533 125.5515)" fill="#FF3F44" width="81.913" height="95.82"/>
<rect x="235.354" y="513.787" transform="matrix(0.8635 -0.5044 0.5044 0.8635 -240 220.5171)" fill="#6FC900" width="103.986" height="79.617"/>
<rect x="-81.863" y="477.821" transform="matrix(0.8635 -0.5044 0.5044 0.8635 -263.9071 76.7911)" fill="#8A0056" width="183.522" height="96.151"/>
<rect x="176.922" y="577.415" transform="matrix(0.8635 -0.5044 0.5044 0.8635 -276.939 191.1783)" fill="#E1E900" width="75.513" height="59.483"/>
<rect x="213.507" y="598.767" transform="matrix(0.8635 -0.5044 0.5044 0.8635 -289.4459 242.7594)" fill="#00B434" width="180.404" height="114.57"/>
<rect x="369.003" y="456.089" transform="matrix(0.8635 -0.5044 0.5044 0.8635 -236.6395 285.4534)" fill="#29ABE2" width="79.898" height="247.486"/>
<rect x="14.907" y="641.337" transform="matrix(0.8635 -0.5044 0.5044 0.8635 -341.4421 154.5331)" fill="#FF752A" width="199.644" height="133.265"/>
<polygon fill="#BCE900" points="399.126,777.165 275.225,849.546 226.895,766.809 350.797,694.434 "/>
<rect x="49.001" y="181.976" transform="matrix(0.8635 -0.5044 0.5044 0.8635 -107.3014 77.8586)" fill="#F6A300" width="82.324" height="110.302"/>
<rect x="355.714" y="259.612" transform="matrix(0.8635 -0.5044 0.5044 0.8635 -83.9017 284.6257)" fill="#4A6BFF" width="256.214" height="75.375"/>
<polygon fill="#6E35FF" points="583.044,556.082 476.975,618.043 381.055,452.937 486.589,390.958 "/>
<rect x="481.138" y="554.825" transform="matrix(0.8635 -0.5044 0.5044 0.8635 -218.5332 381.3335)" fill="#8944BD" width="228.031" height="79.056"/>
<polygon fill="#5572BD" points="544.848,734.292 476.382,774.287 436.872,706.833 505.422,666.787 "/>
<polygon fill="#7644BD" points="630.149,307.239 414.977,433.011 392.307,394.44 607.563,268.579 "/>
<rect x="569.518" y="645.813" transform="matrix(0.8635 -0.5044 0.5044 0.8635 -302.2769 413.6576)" fill="#1F3CFF" width="86.98" height="238.819"/>
<rect x="474.673" y="753.306" transform="matrix(0.8635 -0.5044 0.5044 0.8635 -343.9653 381.0406)" fill="#00B4A0" width="114.35" height="145.126"/>
<rect x="511.051" y="339.171" transform="matrix(0.8635 -0.5044 0.5044 0.8635 -125.9426 355.6902)" fill="#A25FFF" width="166.055" height="142.644"/>
<rect x="553.964" y="450.24" transform="matrix(0.8635 -0.5044 0.5044 0.8635 -147.5271 404.7286)" fill="#BB3EFF" width="239.802" height="49.283"/>
<rect x="610.74" y="597.588" transform="matrix(0.8635 -0.5044 0.5044 0.8635 -238.1249 432.6704)" fill="#6C00F4" width="138.906" height="117.252"/>
<rect x="155.581" y="744.464" transform="matrix(0.8635 -0.5044 0.5044 0.8635 -379.0797 210.292)" fill="#FF3F44" width="86.607" height="121.737"/>
<rect x="-77.232" y="720.508" transform="matrix(0.8635 -0.5044 0.5044 0.8635 -420.5609 109.6809)" fill="#FF9034" width="139.112" height="222.395"/>
<rect x="73.061" y="50.548" transform="matrix(0.8635 -0.5044 0.5044 0.8635 -33.4676 88.5613)" fill="#B4000E" width="147.602" height="111.113"/>
<rect x="214.378" y="720.781" transform="matrix(0.8635 -0.5044 0.5044 0.8635 -342.289 217.4633)" fill="#FFFF00" width="32.334" height="40.424"/>
<polygon fill="#B1A300" points="447.384,918.506 376.302,960.034 301.915,832.688 372.997,791.164 "/>
<polygon fill="#E1E900" points="484.996,252.873 383.454,312.192 310.687,187.621 412.229,128.309 "/>
<rect x="561.691" y="75.741" transform="matrix(0.8635 -0.5044 0.5044 0.8635 17.858 360.1027)" fill="#A25FFF" width="224.875" height="142.645"/>
<rect x="434.925" y="62.676" transform="matrix(0.8635 -0.5044 0.5044 0.8635 -9.603 266.6404)" fill="#00B434" width="105.625" height="176.766"/>
<rect x="1818.67" y="342.295" transform="matrix(0.8635 -0.5044 0.5044 0.8635 54.7898 1007.7625)" fill="#7ACF52" width="140.572" height="120.755"/>
<rect x="1724.93" y="115.961" transform="matrix(0.8635 -0.5044 0.5044 0.8635 127.5764 946.3653)" fill="#BAB732" width="173.945" height="243.127"/>
<polygon fill="#00868A" points="2041.959,760.182 1982.369,794.988 1915.513,680.541 1975.104,645.735 "/>
<rect x="1478.657" y="591.979" transform="matrix(0.8635 -0.5044 0.5044 0.8635 -112.1675 866.3711)" fill="#B4000E" width="131.299" height="96.813"/>
<rect x="1586.678" y="509.384" transform="matrix(0.8635 -0.5044 0.5044 0.8635 -50.7651 927.0406)" fill="#FF9034" width="200.785" height="95.822"/>
<rect x="1503.934" y="148.499" transform="matrix(0.8635 -0.5044 0.5044 0.8635 66.9052 832.3437)" fill="#ED1C24" width="134.099" height="288.168"/>
<rect x="1711.843" y="250.67" transform="matrix(0.8635 -0.5044 0.5044 0.8635 42.2869 937.5854)" fill="#FFC12A" width="82.328" height="280.025"/>
<rect x="1648.691" y="397.143" transform="matrix(0.8635 -0.5044 0.5044 0.8635 6.2092 913.0466)" fill="#FF3F44" width="81.914" height="95.821"/>
<rect x="1800.354" y="499.788" transform="matrix(0.8635 -0.5044 0.5044 0.8635 -19.2754 1007.9786)" fill="#6FC900" width="103.987" height="79.616"/>
<rect x="1439.127" y="475.733" transform="matrix(0.8635 -0.5044 0.5044 0.8635 -51.975 855.5967)" fill="#8A0056" width="230.757" height="96.151"/>
<rect x="1741.922" y="563.415" transform="matrix(0.8635 -0.5044 0.5044 0.8635 -56.2104 978.6452)" fill="#E1E900" width="75.514" height="59.483"/>
<rect x="1778.507" y="584.767" transform="matrix(0.8635 -0.5044 0.5044 0.8635 -68.7175 1030.2299)" fill="#00B434" width="180.404" height="114.57"/>
<rect x="1934.003" y="442.089" transform="matrix(0.8635 -0.5044 0.5044 0.8635 -15.8918 1072.9561)" fill="#29ABE2" width="79.898" height="247.487"/>
<rect x="1579.907" y="627.337" transform="matrix(0.8635 -0.5044 0.5044 0.8635 -120.7023 942.0245)" fill="#FF752A" width="199.643" height="133.265"/>
<polygon fill="#BCE900" points="1964.127,763.165 1840.225,835.546 1791.895,752.809 1915.797,680.434 "/>
<rect x="1614.001" y="167.976" transform="matrix(0.8635 -0.5044 0.5044 0.8635 113.4534 865.3748)" fill="#F6A300" width="82.324" height="110.302"/>
<rect x="1920.715" y="245.612" transform="matrix(0.8635 -0.5044 0.5044 0.8635 136.8234 1072.0907)" fill="#4A6BFF" width="256.214" height="75.375"/>
<polygon fill="#6E35FF" points="2148.045,542.082 2041.975,604.043 1946.055,438.938 2051.59,376.957 "/>
<polygon fill="#7644BD" points="2195.149,293.239 1979.977,419.012 1957.307,380.439 2172.562,254.579 "/>
<rect x="1720.581" y="730.464" transform="matrix(0.8635 -0.5044 0.5044 0.8635 -158.3176 997.8145)" fill="#FF3F44" width="86.607" height="121.737"/>
<rect x="1487.768" y="706.508" transform="matrix(0.8635 -0.5044 0.5044 0.8635 -199.8296 897.1534)" fill="#FF9034" width="139.112" height="222.395"/>
<rect x="1638.061" y="36.548" transform="matrix(0.8635 -0.5044 0.5044 0.8635 187.2517 876.0165)" fill="#B4000E" width="147.602" height="111.112"/>
<rect x="1779.378" y="706.781" transform="matrix(0.8635 -0.5044 0.5044 0.8635 -121.5497 1004.9302)" fill="#FFFF00" width="32.335" height="40.424"/>
<polygon fill="#B1A300" points="2012.384,904.506 1941.302,946.034 1866.914,818.688 1937.997,777.164 "/>
<polygon fill="#E1E900" points="2049.996,238.873 1948.454,298.192 1875.688,173.621 1977.229,114.309 "/>
<rect x="1999.926" y="48.676" transform="matrix(0.8635 -0.5044 0.5044 0.8635 211.1281 1054.1146)" fill="#00B434" width="105.625" height="176.766"/>
<rect x="1470.53" y="320.822" transform="matrix(0.8635 -0.5044 0.5044 0.8635 3.8312 816.6847)" fill="#29ABE2" width="79.898" height="160.886"/>
<rect x="1441.899" y="461.81" transform="matrix(0.8635 -0.5044 0.5044 0.8635 -43.9686 810.559)" fill="#FF3F44" width="66.673" height="49.372"/>
</svg>
