<?xml version="1.0" encoding="iso-8859-1"?>
<!-- Generator: Adobe Illustrator 16.0.4, SVG Export Plug-In . SVG Version: 6.00 Build 0)  -->
<!DOCTYPE svg PUBLIC "-//W3C//DTD SVG 1.1//EN" "http://www.w3.org/Graphics/SVG/1.1/DTD/svg11.dtd">
<svg version="1.1" id="Layer_1" xmlns="http://www.w3.org/2000/svg" xmlns:xlink="http://www.w3.org/1999/xlink" x="0px" y="0px"
	 width="960px" height="560px" viewBox="0 0 960 560" enable-background="new 0 0 960 560" xml:space="preserve">
<g>
	<path fill="#FFFFFF" stroke="#FFFFFF" stroke-width="3" stroke-miterlimit="10" d="M707.861,303.295
		c2.134,0,4.265-0.605,6.396-0.908l2.521-0.906c4.65-2.422,9.301-7.564,10.848-15.132c0.195-1.511,0.39-3.026,0.39-4.233
		c0-9.381-5.426-15.736-10.853-19.364l-2.132-0.323c-2.518-1.211-5.426-0.928-8.331-0.928h-2.129
		c-6.203,2-12.402,3.349-16.089,10.612c-1.351,2.723-2.129,5.605-2.129,8.935c0,5.748,2.129,11.275,5.426,15.21
		C696.234,301.4,702.245,303.295,707.861,303.295z"/>
	<path fill="#FFFFFF" stroke="#FFFFFF" stroke-width="3" stroke-miterlimit="10" d="M934.5,424.5h-23.169
		c4.099-19,8.258-34.387,10.728-45.344l13.952-63.656h-37.013l-1.355,3.125c-6.395-6.959-13.76-11.756-21.317-11.756
		c-1.354,0-2.711-0.426-4.068-0.426c-11.045,1.514-21.121,8.412-30.229,21.117c-8.562,11.664-13.13,25.579-13.651,41.812
		c-0.609,1.434-1.27,2.789-2.039,4.207c-2.521,5.146-6.008,10.543-9.107,13.873c-1.55,1.211-2.908,2.099-4.456,2.099
		c-1.744,0-2.519-1.525-2.519-3.643c0-0.913,0.19-2.124,0.385-3.038c0-1.209,0.39-2.118,0.584-3.026
		c0.192-1.515,0.582-2.722,0.774-3.633c0.775-4.539,1.938-8.774,2.905-12.706c0.776-4.541,1.941-8.776,2.713-12.71
		c0.579-2.115,0.778-3.629,0.971-5.746c0.192-1.516,0.387-3.935,0.387-5.449c0-7.262-1.55-14.219-4.845-19.967
		c-5.231-8.776-12.207-12.405-19.765-12.405c-1.355,0-2.519,0-3.874,0.302c-7.753,1.209-15.311,5.446-21.315,10.588
		c0.192-1.209,0.387,0.059,0.966-1.461l0.776-1.156h-36.04c-4.33,19-9.256,36.768-14.101,56.662
		c-1.557,3.986-3.375,6.55-5.667,10.127c-3.294,4.843-6.587,6.949-8.718,6.949c-2.908,0.301-3.874-1.822-3.874-4.244
		c0-2.421,0.581-5.905,1.353-8.625c3.103-14.824,6.395-26.954,9.691-41.479l4.843-19.39h-18.989h-18.989l-12.208,52.598
		c-0.294,1.217-0.488,0.967-0.684,2.108c-2.804,9.229-6.425,17.545-12.688,20.619c-0.968,0.302-2.131,0.56-3.484,0.56
		c-0.78,0-1.55-0.174-2.136-0.476c-6.006-2.117-8.138-9.769-8.138-18.243c0-2.419,0.195-4.884,0.388-7.001
		c1.744-0.908,3.679-1.832,5.428-3.044c7.942-5.751,16.274-15.447,16.274-29.965c0-11.807-6.006-19.075-12.785-22.401
		c-4.072-2.422-8.917-3.634-13.76-3.634c-0.971,0-2.132-0.003-3.1,0.301c-7.171,0.306-14.729,7.011-20.929,12.762l14.531-63.184
		h-37.013l-22.202,99.209l-0.079-1.594c-1.744,4.842-3.295,8.006-4.845,10.422c-2.521,4.845-5.042,6.272-8.719,7.183
		c0.969-4.842,1.548-9.88,1.548-14.715c0-13.315-3.679-26.119-10.657-35.802c-7.942-11.8-19.185-17.29-30.227-18.804
		c-2.132,0-3.879-0.329-6.01-0.329c-13.758,0-27.129,6.343-37.395,16.932c-10.561,10.814-18.012,26.448-19.48,43.255
		c-0.292,0.549-0.58,1.063-0.869,1.513c-2.518,4.845-5.035,6.656-8.718,7.566c0.968-4.842,1.548-9.685,1.548-14.524
		c0-13.315-3.68-26.019-10.658-35.705c-7.942-11.798-19.179-17.242-30.226-18.758c-2.131,0-3.876-0.301-6.008-0.301
		c-13.755,0-27.128,6.353-37.397,16.94c-11.821,12.104-19.766,30.259-19.766,49.32c0,12.105,3.103,26.947,10.656,37.537
		c5.704,7.605,12.794,11.654,20.504,18.654h-67.658c5.486-7,10.611-8.559,15.116-12.531c10.431-9.146,19.223-25.028,19.427-44.272
		c0.206-21.449-9.203-35.699-22.495-43.584l6.135-3.502c5.523-3.466,10.635-8.369,15.338-14.99
		c4.703-6.631,7.159-14.916,7.159-24.696c0-16.719-8.999-26.539-18.202-31.9c-0.82-0.947-1.638-1.282-2.454-1.6
		c-13.296-7.255-33.131-10.107-57.061-10.107c-23.517,0-46.424,6.939-65.033,18.292c-18.609,11.672-32.72,28.072-38.243,47.001
		c-1.839,6.621-2.657,12.3-2.657,18.294c0,5.046,0.818,11.091,1.839,14.879c3.478,11.04,10.637,17.717,17.794,17.717h2.658
		c5.931,0,12.27-7.307,16.153-13.936c1.024-2.203,2.048-4.597,3.067-6.175l-5.723-5.771c-3.067-2.838-4.703-6.194-4.703-11.56
		c0-2.521,0.204-5.781,1.021-9.566c3.065-15.454,13.7-28.442,24.539-36.955c3.888-2.841,7.977-5.075,11.455-6.655
		c-3.888,7.887-6.956,17.028-9.203,26.172l-10.635,47.943c-3.885,16.404-7.363,32.171-10.841,48.259
		c-2.25,9.777-5.929,17.031-10.632,24.285l-1.636,2.527l4.907,6.844c1.543,1.107,3.084,0.587,4.678,5.587H113.5v-154h7.328
		c25.191,0,58.652-12,83.747-33H490.5v-24h-35.457c9.861-3,18.633-9.27,26.413-16.774l-6.013-10.269
		c-9.856,9.495-23.788,13.656-37.652,13.656c-7.35,0-15.291-2.105-23.291-5.135v-94.158c8-3.033,15.941-4.65,23.291-4.65
		c14.195,0,27.096,4.65,36.612,14.146l6.368-9.295c-11.525-11.112-25.129-16.568-40.996-16.568
		c-33.572,0-60.668,29.568-60.668,64.122c0,29.575,19.531,56.078,46.333,61.673l0.071,0.815l-43.761-0.116L304.161,73.409
		l-47.858,88.954l-16.115-0.077c-0.853-57.394-73.7-90.786-119.359-90.786H51.5v347.519v10.472v26.01h815.771
		c-1.19,2-2.173,5.855-2.652,7.945c-2.326,9.381-5.427,16.314-9.108,24.183c-3.679,7.868-8.915,11.031-15.696,10.73
		c-0.582,0-1.163-0.685-1.745-0.991c-0.776,0-4.708-0.793-5.29-1.094c6.977-3.634,6.722-11.995,6.722-20.165V475.2
		c0-11.192,0.313-17.7-8.989-17.7h-1.548c-0.776,0-1.16-2.037-1.744-2.037c-8.719,2.414-12.402,10.324-12.595,20.31
		c0,2.113,0.192,3.042,0.385,5.162c0.971,9.379,4.844,18.77,10.854,23.913c6.393,6.049,14.339,8.623,22.281,8.623
		c2.326,0,4.847-0.371,7.365-0.677c9.884-2.115,19.185-7.604,27.902-16.377c8.913-8.775,14.921-17.224,17.829-30.835
		c0.806-3.724,1.813-8.082,2.951-10.082H934.5V424.5z M289.297,122.513l23.384,39.199l-45.516-0.055L289.297,122.513z
		 M261.082,175.514l58.664,0.668l17.161,37.317h-94.238L261.082,175.514z M231.601,213.5h-7.242
		c7.669-12,13.085-24.224,15.048-37.062l10.883,0.05L231.601,213.5z M113.5,92.5h7.328c35.687,0,101.712,29.161,101.712,74.5
		c0,45.341-65.404,79.5-101.712,79.5H113.5V92.5z M865.864,362.898c3.295-12.407,8.721-25.11,13.952-32.377
		c2.519-3.327,5.231-5.444,7.556-5.444c0.584,0,0.776,0,1.357,0.304c0.192,0,0.969,0.304,1.163,0.604
		c2.132,1.209,2.908,4.235,3.101,6.96c0.189,0.908,0.189,2.117,0.189,3.026c-1.55,6.955-3.29,17.849-5.811,28.743
		c-1.939,8.771-4.65,16.945-7.944,24.202c-3.295,7.264-7.556,10.898-12.79,10.898c-1.742,0-2.905-1.518-3.873-4.239
		c-0.582-2.118-0.971-5.144-0.971-7.868C861.794,380.752,863.346,371.672,865.864,362.898z M752.899,391.341
		c3.874-16.641,7.942-32.979,14.145-46.598c4.458-9.379,7.75-12.706,10.269-12.706c2.134,0,2.91,2.419,2.91,5.751
		c0,2.418-0.39,5.444-0.969,8.771c-0.586,2.12-0.971,3.633-1.168,5.748c-0.968,3.631-1.935,6.656-2.129,7.866
		c-1.355,5.75-2.908,12.406-3.682,18.762c-0.192,2.725-0.579,6.05-0.579,9.379c0,6.354,1.161,15.449,3.679,21.197
		c3.724,7.844,9.757,9.988,15.895,14.988h-46.016c0.194-5,0.579-4.838,0.769-5.74L752.899,391.341z M710.853,417.188
		c-0.547,2.439-1.112,0.312-1.641,7.312h-13.714C700.964,419.5,706.241,420.995,710.853,417.188z M663.568,408.303
		c1.349-1.723,2.57-4.968,3.737-6.899c1.923,7.396,5.688,15.52,11.958,18.781c2.027,1.166,4.107-0.685,6.214,4.315h-44.267
		C650.56,419.5,657.798,415.564,663.568,408.303z M604.854,353.82c3.682-10.894,9.497-19.342,17.055-21.457
		c0.192,0,0.58,2.137,0.774,2.137h0.773c2.908,0,4.458-0.021,4.652,3.609c0,1.514-0.389,2.712-1.359,5.134
		c-3.293,8.172-9.108,11.794-15.111,15.427l-6.399,3.326c-0.188,0.299-0.771,0.448-0.968,0.448c0,3.932,0.392,8.399,0.583,12.938
		c0.967,12.104,3.101,26.605,8.721,35.379c4.25,6.637,9.689,8.739,16.036,13.739h-39.089l12.394-60.674
		C603.501,361.404,604.08,356.244,604.854,353.82z M540.134,403.123c3.1,2.723,6.589,3.47,10.463,3.47
		c2.252,0,4.37,1.289,6.36-0.031l-3.448,17.938h-38.907C524.17,417.5,533.169,412.117,540.134,403.123z M492.081,369.214
		c1.548-14.518,5.034-29.042,11.042-39.938c1.355-2.113,2.324-4.23,3.685-5.751c3.095-3.929,6.39-6.348,8.91-6.348
		c4.069,0,6.357,5.139,6.551,17.548c-7.75,3.327-14.769,15.431-14.769,27.534v2.117c0,7.565,3.138,14.522,7.21,19.062
		c-0.58,2.118-0.95,3.631-1.724,5.748c-3.102,8.776-8.131,17.245-14.525,17.245c-4.071,0-5.706-6.354-6.48-13.313
		c-0.584-3.63-0.535-7.562-0.535-9.98C491.445,378.598,491.884,374.059,492.081,369.214z M380.272,369.214
		c1.548-14.518,5.037-29.042,11.042-39.938c1.358-2.113,2.326-4.23,3.682-5.751c3.103-3.929,6.397-6.348,8.916-6.348
		c4.068,0,5.258,5.139,5.451,17.548c-7.75,3.327-15.862,15.431-15.862,27.534v2.117c0,7.565,4.238,14.522,8.307,19.062
		c-0.584,2.118-0.4,3.631-1.174,5.748c-3.1,8.776-7.856,17.245-14.251,17.245c-4.071,0-5.576-6.354-6.352-13.313
		c-0.58-3.63-0.461-7.562-0.461-9.98C379.569,378.598,380.078,374.059,380.272,369.214z M428.327,403.123
		c3.098,2.723,6.587,3.47,10.463,3.47c6.735,0,12.293-7.393,16.688-16.036c1.678,4.585,3.953,11.431,6.951,15.634
		c5.704,7.606,12.789,11.31,20.502,18.31h-80.135C412.359,417.5,421.362,412.117,428.327,403.123z M271.137,297.719l2.658-12.226
		c3.478-15.456,12.066-28.982,22.902-28.982c6.545,0,12.479,2.074,12.479,13.426c0,9.777-2.66,19.967-7.975,27.854
		c-5.116,7.881-11.047,12.709-17.386,12.709h-15.542C269.093,310.5,270.113,301.506,271.137,297.719z M263.978,328.156
		c1.432-0.312,2.25-0.945,3.682-1.261c1.024,0,2.454-0.314,3.478-0.314c11.45,0,18.609,11.04,18.609,28.389
		c0,12.303-3.475,23.343-9.814,31.862c-4.706,6.311-11.249,10.725-17.793,10.725c-4.295,0-8.589-1.893-12.066-6.624L263.978,328.156
		z M244.96,414.081c4.105,4.446,8.811,3.419,13.823,10.419h-28.185C235.878,417.5,240.846,418.88,244.96,414.081z M802.355,424.5
		c9.164-5,16.58-9.479,22.24-18.316c2.132-3.424,4.159-8.46,6.094-12.313c1.575,5.688,3.92,9.855,7.078,13.889
		c6.392,7.868,13.562,11.459,21.895,11.459c1.747,0,3.684-0.478,5.426-0.781c3.685-0.906,7.558,0.543,10.853-1.88
		c-0.234,1.049-0.674,0.943-1.249,7.943H802.355z"/>
</g>
</svg>
